<svg data-v-63e44512="" width="13" height="16" viewBox="0 0 13 16" xmlns="http://www.w3.org/2000/svg"><path data-v-63e44512="" fill-rule="evenodd" clip-rule="evenodd" d="M9.72247 13.7475L7.07094 15.2782C6.48495 15.6165 5.76301 15.6165 5.17695 15.2782L2.52543 13.7475C0.962699 12.8453 0 11.1779 0 9.37341V2.83893C0 2.50232 0.262793 2.22256 0.598964 2.20544C3.44034 2.06071 4.98335 0.903564 5.67222 0.191095C5.91861 -0.0636982 6.32931 -0.0636982 6.57567 0.191095C7.26458 0.903564 8.80758 2.06071 11.6489 2.20544C11.9851 2.22256 12.2479 2.50232 12.2479 2.83893V9.37341C12.2479 11.1779 11.2852 12.8453 9.72247 13.7475ZM7.87254 5.86908C8.10568 5.99649 8.29179 6.19542 8.40347 6.43661C8.59345 6.54635 8.73283 6.72628 8.79166 6.93774C8.6328 6.80687 8.43136 6.7391 8.22575 6.74737C8.02015 6.75563 7.82478 6.83936 7.67693 6.98256C7.63484 7.08496 7.58634 7.18461 7.53172 7.2809C7.49991 7.35381 7.46463 7.42465 7.4259 7.49342C7.39255 7.55268 7.35686 7.6103 7.31883 7.66627C7.20162 7.83874 7.06262 7.99533 6.9053 8.13215L6.91094 8.13397L6.90379 8.13346C6.46674 8.51365 5.90691 8.72263 5.32781 8.72177C5.23549 8.72173 5.14325 8.71643 5.05154 8.70589C5.02617 8.72542 5.00118 8.74537 4.97656 8.76574C4.54978 9.11718 4.23682 9.58745 4.07734 10.117C4.09525 9.57486 4.19822 9.0389 4.38249 8.52876C4.38768 8.51434 4.39307 8.50002 4.39841 8.48565C4.52892 8.13425 4.69722 7.79809 4.90032 7.48309C4.05719 7.0169 3.48075 6.12688 3.45833 5.10011C3.96024 5.83419 4.80323 6.316 5.75908 6.316C5.81854 6.316 5.87749 6.31394 5.93599 6.31026L5.94778 6.30567C6.23046 6.06659 6.55795 5.88633 6.91109 5.77545L6.92777 5.7704C7.09333 5.72117 7.2673 5.70694 7.43865 5.7286C7.59079 5.74784 7.73797 5.79549 7.87254 5.86908Z"></path></svg>